<?xml version="1.0" encoding="UTF-8"?>
<svg width="11px" height="14px" viewBox="0 0 11 14" version="1.1" xmlns="http://www.w3.org/2000/svg" xmlns:xlink="http://www.w3.org/1999/xlink">
    <!-- Generator: Sketch 55.1 (78136) - https://sketchapp.com -->
    <title>形状</title>
    <desc>Created with Sketch.</desc>
    <g id="页面2" stroke="none" stroke-width="1" fill="none" fill-rule="evenodd">
        <g id="首页" transform="translate(-1709.000000, -81.000000)" fill="currentColor" fill-rule="nonzero">
            <g id="编组-18" transform="translate(1709.000000, 78.000000)">
                <g id="个人中心" transform="translate(-0.000000, 3.000000)">
                    <path d="M8.77838449,13.912908 L2.19161837,13.912908 L2.19161828,13.912908 C1.02211425,13.9140983 0.0729962439,12.9671326 0.0715424662,11.7976269 L0.0715424662,10.4934161 L0.0715424662,10.4933653 C0.0729539734,8.94830701 1.10987736,7.59598625 2.60165049,7.19369086 L2.84907678,7.13003745 L3.02566398,7.32031356 L3.02566411,7.3203137 C4.39661328,8.76798891 6.6815642,8.83018887 8.12924275,7.45923937 C8.16010829,7.43000975 8.19045498,7.40023722 8.22026895,7.36993581 L8.41088762,7.17247269 L8.66550092,7.26418835 L8.66550072,7.26418828 C10.0174338,7.75638395 10.9179706,9.04063783 10.9200092,10.4793765 L10.9200092,11.7551817 L10.9200092,11.755179 C10.9418417,12.9248184 10.0113613,13.8906949 8.84172527,13.912535 C8.82768622,13.9127971 8.81364497,13.912908 8.79960348,13.912908 L8.77838568,13.912908 L8.77838449,13.912908 Z M2.56635882,8.08212179 L2.56635909,8.08212179 C1.56066574,8.45907299 0.893495385,9.41940848 0.891172631,10.493421 L0.891172631,11.7695689 L0.891172631,11.7695339 C0.892219354,12.4841392 1.47014045,13.0637738 2.18473904,13.0669353 L8.7783396,13.0669353 L8.77833961,13.0669353 C9.49293988,13.0637929 10.070875,12.4841743 10.0719412,11.769569 L10.0719412,10.4934212 L10.0719412,10.4934717 C10.0708095,9.50522539 9.50534551,8.60442962 8.61582904,8.17386076 L8.61582895,8.17386084 C7.79935229,8.90839958 6.73880138,9.31290739 5.6405475,9.30867138 L5.64054744,9.30867138 C4.49677193,9.30749873 3.39681696,8.86864127 2.56635897,8.08212179 L2.56635882,8.08212179 Z M5.64054729,6.96784471 L5.6405473,6.96784471 C3.74054335,6.94368392 2.21987513,5.38384191 2.24403792,3.4838413 C2.2681987,1.58383736 3.82804072,0.0631691363 5.72804132,0.0873319248 C7.62187925,0.111414338 9.14010779,1.66161614 9.1247178,3.55554429 L9.12471792,3.55553089 C9.10714359,5.45772386 7.55086651,6.98551058 5.64866852,6.96793156 C5.64596415,6.96790658 5.64325982,6.96787841 5.64055551,6.96784705 L5.64054729,6.96784471 Z M5.64054729,0.974838166 L5.64054731,0.974838166 C4.19552232,0.986249686 3.03335569,2.16692588 3.04475197,3.61195755 C3.05616349,5.05698254 4.23683968,6.21914917 5.68187136,6.20775289 C7.12689635,6.19634137 8.28906298,5.01566518 8.2776667,3.5706335 C8.27216983,2.87457308 7.98954466,2.2093929 7.49232092,1.72226373 L7.49232085,1.72226366 C6.99787433,1.23853499 6.332253,0.969875193 5.64055893,0.974849786 L5.64054729,0.974838166 Z" id="形状"></path>
                </g>
            </g>
        </g>
    </g>
</svg>
